# xmcd
#
# Track frame offsets: 
#        150
#        15900
#        33975
#        49125
#        63000
#        72450
#        84150
#        100125
#        110700
#        120075
#        130950
#        150300
#        167100
#        176625
#        188250
#        197550
#        210150
#        217650
#        232050
#
# Disc length: 3327 seconds
#
# Revision: 0
# Processed by: cddbd v1.4PL0 Copyright (c) Steve Scherf et al.
# Submitted via: ExactAudioCopy v0.90b4
#
DISCID=e50cfd13
DTITLE=Linn Lorkin and Herschel - In A French Cafe
DYEAR=1993
DGENRE=Cabaret
TTITLE0=La Vie En Rose
TTITLE1=Sous Le Ciel De Paris
TTITLE2=C'est Si Bon
TTITLE3=Padam
TTITLE4=C'est Mon Gigolo
TTITLE5=Je N'en Connais Pas La Fin
TTITLE6=La Mer
TTITLE7=La Ronde
TTITLE8=Domino
TTITLE9=J'attendrai
TTITLE10=L'Accordeoniste
TTITLE11=Mon Homme
TTITLE12=Parlez-Moi d'Amour
TTITLE13=Les Feuilles Mortes
TTITLE14=C'est Magnifique
TTITLE15=La Seine
TTITLE16=Sous Les Ponts De Paris
TTITLE17=Non, Je Ne Regrette Rien
TTITLE18=Chanson d'Amour
EXTD=
EXTT0=
EXTT1=
EXTT2=
EXTT3=
EXTT4=
EXTT5=
EXTT6=
EXTT7=
EXTT8=
EXTT9=
EXTT10=
EXTT11=
EXTT12=
EXTT13=
EXTT14=
EXTT15=
EXTT16=
EXTT17=
EXTT18=
PLAYORDER=
